<?xml version="1.0" encoding="utf-8"?>
<!-- Generator: Adobe Illustrator 28.1.0, SVG Export Plug-In . SVG Version: 6.00 Build 0)  -->
<svg version="1.1" id="Layer_1" xmlns="http://www.w3.org/2000/svg" xmlns:xlink="http://www.w3.org/1999/xlink" x="0px" y="0px"
	 viewBox="0 0 289 43.6" style="enable-background:new 0 0 289 43.6;" xml:space="preserve">
<style type="text/css">
	.st0{fill:#FFFFFF;}
</style>
<g>
	<rect x="2.9" y="3.7" class="st0" width="5.8" height="36.4"/>
	<polygon class="st0" points="59.5,9.5 71.5,9.5 71.5,40.1 77.3,40.1 77.3,9.5 89.4,9.5 89.4,3.7 59.5,3.7 	"/>
	<rect x="100.6" y="3.7" class="st0" width="28" height="5.8"/>
	<rect x="100.6" y="34.4" class="st0" width="28" height="5.8"/>
	<rect x="100.6" y="19.1" class="st0" width="28" height="5.8"/>
	<path class="st0" d="M162,24.1c3.1-1.1,6.8-3.6,6.8-9.8c0-10.2-9.9-10.5-10.4-10.5h-18.7v5.8h17.7c0.1,0,2.7,0,4.3,1.6
		c0.8,0.8,1.3,1.9,1.3,3.2c0,1.3-0.4,2.4-1.3,3.2c-1.6,1.6-4.2,1.6-4.3,1.6h-17.6l0,21.1h5.8V24.8h9.5l7.6,15.3h6.4l-7.8-15.7
		L162,24.1z"/>
	<rect x="237.1" y="3.7" class="st0" width="5.8" height="36.4"/>
	<path class="st0" d="M269.5,3.7l-15.5,0v5.8h15.2c3.9,0.2,11.1,3.1,11.1,12.4c0,9.3-7.2,12.2-11,12.4l-15.2,0v5.8h15.5
		c0.7,0,16.6-0.8,16.6-18.2C286.1,4.5,270.2,3.8,269.5,3.7z"/>
	<path class="st0" d="M36.7,3.5h-5.2c-7.1,0-11.6,4.4-11.6,11.2v25.5h5.7V14.5c0-4.5,3.3-5.4,6.1-5.4h4.9c2.8,0,6.1,0.9,6.1,5.4
		v25.6h5.7V14.7C48.3,7.9,43.7,3.5,36.7,3.5z"/>
	<path class="st0" d="M214.7,3.7h-3.3c-3.6,0-6.4,1.2-8.3,3.6c-1.9-2.4-4.7-3.6-8.3-3.6h-3.3c-6.8,0-11.2,4.6-11.2,11.6v24.9h5.7
		V15.4c0-2.8,0.9-6.2,5.3-6.2h3.6c4.4,0,5.3,3.4,5.3,6.2v24.7h5.7V15.4c0-2.8,0.9-6.2,5.3-6.2h3.6c4.4,0,5.3,3.4,5.3,6.2v24.7h5.7
		V15.3C225.9,8.2,221.5,3.7,214.7,3.7z"/>
</g>
</svg>
